# xmcd
#
# Track frame offsets: 
#        150
#        12407
#        27942
#        43687
#        56580
#        72427
#        85952
#        99757
#        119350
#        137202
#
# Disc length: 2005 seconds
#
# Revision: 0
# Processed by: cddbd v1.5.1PL2 Copyright (c) Steve Scherf et al.
# Submitted via: ExactAudioCopy v0.95b2
#
DISCID=8407d30a
DTITLE=Τόλης Βοσκόπουλος - Όλη Η Αλήθεια
DYEAR=1900
DGENRE=Folk
TTITLE0=Θα Κόψω Για Σένα Τη Νύχτα Στα Δύο
TTITLE1=Την Αλήθεια Πες Μου Κι Ας Τελειώνω
TTITLE2=Δεν Μπορώ Να Την Ξεχάσω
TTITLE3=Ματόκλαδά Μου Γυριστά
TTITLE4=Πόσα Κρύβεις Νύχτα
TTITLE5=Απαγορεύεται
TTITLE6=Κορίτσι Θεϊκό
TTITLE7=Τα Χάδια Σου Τα Μαγικά
TTITLE8=Πέντε Με Οκτώ
TTITLE9=Οι Μαύροι Κύκλοι Των Ματιών Σου (Όλη Η Αλήθεια)
EXTD=
EXTT0=
EXTT1=
EXTT2=
EXTT3=
EXTT4=
EXTT5=
EXTT6=
EXTT7=
EXTT8=
EXTT9=
PLAYORDER=
